<svg id="visual" viewBox="0 0 960 540" width="960" height="540" xmlns="http://www.w3.org/2000/svg" xmlns:xlink="http://www.w3.org/1999/xlink" version="1.1"><path d="M0 374L22.8 376C45.7 378 91.3 382 137 378.3C182.7 374.7 228.3 363.3 274 354.5C319.7 345.7 365.3 339.3 411.2 336.5C457 333.7 503 334.3 548.8 332C594.7 329.7 640.3 324.3 686 328.8C731.7 333.3 777.3 347.7 823 353.7C868.7 359.7 914.3 357.3 937.2 356.2L960 355L960 541L937.2 541C914.3 541 868.7 541 823 541C777.3 541 731.7 541 686 541C640.3 541 594.7 541 548.8 541C503 541 457 541 411.2 541C365.3 541 319.7 541 274 541C228.3 541 182.7 541 137 541C91.3 541 45.7 541 22.8 541L0 541Z" fill="#c62368"></path><path d="M0 421L22.8 421.7C45.7 422.3 91.3 423.7 137 424.7C182.7 425.7 228.3 426.3 274 425.7C319.7 425 365.3 423 411.2 414.3C457 405.7 503 390.3 548.8 387.2C594.7 384 640.3 393 686 397.8C731.7 402.7 777.3 403.3 823 402.3C868.7 401.3 914.3 398.7 937.2 397.3L960 396L960 541L937.2 541C914.3 541 868.7 541 823 541C777.3 541 731.7 541 686 541C640.3 541 594.7 541 548.8 541C503 541 457 541 411.2 541C365.3 541 319.7 541 274 541C228.3 541 182.7 541 137 541C91.3 541 45.7 541 22.8 541L0 541Z" fill="#d53867"></path><path d="M0 423L22.8 419.5C45.7 416 91.3 409 137 412.5C182.7 416 228.3 430 274 435.7C319.7 441.3 365.3 438.7 411.2 437C457 435.3 503 434.7 548.8 435C594.7 435.3 640.3 436.7 686 431.8C731.7 427 777.3 416 823 414.2C868.7 412.3 914.3 419.7 937.2 423.3L960 427L960 541L937.2 541C914.3 541 868.7 541 823 541C777.3 541 731.7 541 686 541C640.3 541 594.7 541 548.8 541C503 541 457 541 411.2 541C365.3 541 319.7 541 274 541C228.3 541 182.7 541 137 541C91.3 541 45.7 541 22.8 541L0 541Z" fill="#e34c67"></path><path d="M0 450L22.8 448.7C45.7 447.3 91.3 444.7 137 445.8C182.7 447 228.3 452 274 457C319.7 462 365.3 467 411.2 469.5C457 472 503 472 548.8 474C594.7 476 640.3 480 686 477.5C731.7 475 777.3 466 823 463.3C868.7 460.7 914.3 464.3 937.2 466.2L960 468L960 541L937.2 541C914.3 541 868.7 541 823 541C777.3 541 731.7 541 686 541C640.3 541 594.7 541 548.8 541C503 541 457 541 411.2 541C365.3 541 319.7 541 274 541C228.3 541 182.7 541 137 541C91.3 541 45.7 541 22.8 541L0 541Z" fill="#ef5f67"></path><path d="M0 496L22.8 496.7C45.7 497.3 91.3 498.7 137 500.3C182.7 502 228.3 504 274 503.5C319.7 503 365.3 500 411.2 501.2C457 502.3 503 507.7 548.8 503.7C594.7 499.7 640.3 486.3 686 485.7C731.7 485 777.3 497 823 501.7C868.7 506.3 914.3 503.7 937.2 502.3L960 501L960 541L937.2 541C914.3 541 868.7 541 823 541C777.3 541 731.7 541 686 541C640.3 541 594.7 541 548.8 541C503 541 457 541 411.2 541C365.3 541 319.7 541 274 541C228.3 541 182.7 541 137 541C91.3 541 45.7 541 22.8 541L0 541Z" fill="#fa7268"></path></svg>